%TF.GenerationSoftware,KiCad,Pcbnew,8.0.0*%
%TF.CreationDate,2024-03-06T12:54:26+05:00*%
%TF.ProjectId,keeb,6b656562-2e6b-4696-9361-645f70636258,rev?*%
%TF.SameCoordinates,Original*%
%TF.FileFunction,Paste,Top*%
%TF.FilePolarity,Positive*%
%FSLAX46Y46*%
G04 Gerber Fmt 4.6, Leading zero omitted, Abs format (unit mm)*
G04 Created by KiCad (PCBNEW 8.0.0) date 2024-03-06 12:54:26*
%MOMM*%
%LPD*%
G01*
G04 APERTURE LIST*
G04 Aperture macros list*
%AMRoundRect*
0 Rectangle with rounded corners*
0 $1 Rounding radius*
0 $2 $3 $4 $5 $6 $7 $8 $9 X,Y pos of 4 corners*
0 Add a 4 corners polygon primitive as box body*
4,1,4,$2,$3,$4,$5,$6,$7,$8,$9,$2,$3,0*
0 Add four circle primitives for the rounded corners*
1,1,$1+$1,$2,$3*
1,1,$1+$1,$4,$5*
1,1,$1+$1,$6,$7*
1,1,$1+$1,$8,$9*
0 Add four rect primitives between the rounded corners*
20,1,$1+$1,$2,$3,$4,$5,0*
20,1,$1+$1,$4,$5,$6,$7,0*
20,1,$1+$1,$6,$7,$8,$9,0*
20,1,$1+$1,$8,$9,$2,$3,0*%
G04 Aperture macros list end*
%ADD10R,2.000000X2.000000*%
%ADD11RoundRect,0.250000X-0.250000X-0.250000X0.250000X-0.250000X0.250000X0.250000X-0.250000X0.250000X0*%
%ADD12RoundRect,0.232500X-0.232500X-0.232500X0.232500X-0.232500X0.232500X0.232500X-0.232500X0.232500X0*%
%ADD13RoundRect,0.062500X-0.375000X-0.062500X0.375000X-0.062500X0.375000X0.062500X-0.375000X0.062500X0*%
%ADD14RoundRect,0.062500X-0.062500X-0.375000X0.062500X-0.375000X0.062500X0.375000X-0.062500X0.375000X0*%
G04 APERTURE END LIST*
D10*
%TO.C,SW16*%
X166000000Y-65000000D03*
X172000000Y-65000000D03*
%TD*%
D11*
%TO.C,D2*%
X158750000Y-73000000D03*
X161250000Y-73000000D03*
%TD*%
D10*
%TO.C,SW1*%
X166000000Y-73000000D03*
X172000000Y-73000000D03*
%TD*%
D12*
%TO.C,U1*%
X162100000Y-53787500D03*
X162100000Y-54937500D03*
X162100000Y-56087500D03*
X163250000Y-53787500D03*
X163250000Y-54937500D03*
X163250000Y-56087500D03*
X164400000Y-53787500D03*
X164400000Y-54937500D03*
X164400000Y-56087500D03*
D13*
X160812500Y-53187500D03*
X160812500Y-53687500D03*
X160812500Y-54187500D03*
X160812500Y-54687500D03*
X160812500Y-55187500D03*
X160812500Y-55687500D03*
X160812500Y-56187500D03*
X160812500Y-56687500D03*
D14*
X161500000Y-57375000D03*
X162000000Y-57375000D03*
X162500000Y-57375000D03*
X163000000Y-57375000D03*
X163500000Y-57375000D03*
X164000000Y-57375000D03*
X164500000Y-57375000D03*
X165000000Y-57375000D03*
D13*
X165687500Y-56687500D03*
X165687500Y-56187500D03*
X165687500Y-55687500D03*
X165687500Y-55187500D03*
X165687500Y-54687500D03*
X165687500Y-54187500D03*
X165687500Y-53687500D03*
X165687500Y-53187500D03*
D14*
X165000000Y-52500000D03*
X164500000Y-52500000D03*
X164000000Y-52500000D03*
X163500000Y-52500000D03*
X163000000Y-52500000D03*
X162500000Y-52500000D03*
X162000000Y-52500000D03*
X161500000Y-52500000D03*
%TD*%
D11*
%TO.C,D1*%
X158750000Y-65000000D03*
X161250000Y-65000000D03*
%TD*%
M02*
