%TF.GenerationSoftware,KiCad,Pcbnew,8.0.0*%
%TF.CreationDate,2024-03-06T12:54:27+05:00*%
%TF.ProjectId,keeb,6b656562-2e6b-4696-9361-645f70636258,rev?*%
%TF.SameCoordinates,Original*%
%TF.FileFunction,Legend,Top*%
%TF.FilePolarity,Positive*%
%FSLAX46Y46*%
G04 Gerber Fmt 4.6, Leading zero omitted, Abs format (unit mm)*
G04 Created by KiCad (PCBNEW 8.0.0) date 2024-03-06 12:54:27*
%MOMM*%
%LPD*%
G01*
G04 APERTURE LIST*
%ADD10C,0.100000*%
%ADD11C,0.150000*%
%ADD12C,0.120000*%
G04 APERTURE END LIST*
D10*
X167690476Y-63909800D02*
X167833333Y-63957419D01*
X167833333Y-63957419D02*
X168071428Y-63957419D01*
X168071428Y-63957419D02*
X168166666Y-63909800D01*
X168166666Y-63909800D02*
X168214285Y-63862180D01*
X168214285Y-63862180D02*
X168261904Y-63766942D01*
X168261904Y-63766942D02*
X168261904Y-63671704D01*
X168261904Y-63671704D02*
X168214285Y-63576466D01*
X168214285Y-63576466D02*
X168166666Y-63528847D01*
X168166666Y-63528847D02*
X168071428Y-63481228D01*
X168071428Y-63481228D02*
X167880952Y-63433609D01*
X167880952Y-63433609D02*
X167785714Y-63385990D01*
X167785714Y-63385990D02*
X167738095Y-63338371D01*
X167738095Y-63338371D02*
X167690476Y-63243133D01*
X167690476Y-63243133D02*
X167690476Y-63147895D01*
X167690476Y-63147895D02*
X167738095Y-63052657D01*
X167738095Y-63052657D02*
X167785714Y-63005038D01*
X167785714Y-63005038D02*
X167880952Y-62957419D01*
X167880952Y-62957419D02*
X168119047Y-62957419D01*
X168119047Y-62957419D02*
X168261904Y-63005038D01*
X168595238Y-62957419D02*
X168833333Y-63957419D01*
X168833333Y-63957419D02*
X169023809Y-63243133D01*
X169023809Y-63243133D02*
X169214285Y-63957419D01*
X169214285Y-63957419D02*
X169452381Y-62957419D01*
X170357142Y-63957419D02*
X169785714Y-63957419D01*
X170071428Y-63957419D02*
X170071428Y-62957419D01*
X170071428Y-62957419D02*
X169976190Y-63100276D01*
X169976190Y-63100276D02*
X169880952Y-63195514D01*
X169880952Y-63195514D02*
X169785714Y-63243133D01*
X171214285Y-62957419D02*
X171023809Y-62957419D01*
X171023809Y-62957419D02*
X170928571Y-63005038D01*
X170928571Y-63005038D02*
X170880952Y-63052657D01*
X170880952Y-63052657D02*
X170785714Y-63195514D01*
X170785714Y-63195514D02*
X170738095Y-63385990D01*
X170738095Y-63385990D02*
X170738095Y-63766942D01*
X170738095Y-63766942D02*
X170785714Y-63862180D01*
X170785714Y-63862180D02*
X170833333Y-63909800D01*
X170833333Y-63909800D02*
X170928571Y-63957419D01*
X170928571Y-63957419D02*
X171119047Y-63957419D01*
X171119047Y-63957419D02*
X171214285Y-63909800D01*
X171214285Y-63909800D02*
X171261904Y-63862180D01*
X171261904Y-63862180D02*
X171309523Y-63766942D01*
X171309523Y-63766942D02*
X171309523Y-63528847D01*
X171309523Y-63528847D02*
X171261904Y-63433609D01*
X171261904Y-63433609D02*
X171214285Y-63385990D01*
X171214285Y-63385990D02*
X171119047Y-63338371D01*
X171119047Y-63338371D02*
X170928571Y-63338371D01*
X170928571Y-63338371D02*
X170833333Y-63385990D01*
X170833333Y-63385990D02*
X170785714Y-63433609D01*
X170785714Y-63433609D02*
X170738095Y-63528847D01*
D11*
X159261905Y-71604819D02*
X159261905Y-70604819D01*
X159261905Y-70604819D02*
X159500000Y-70604819D01*
X159500000Y-70604819D02*
X159642857Y-70652438D01*
X159642857Y-70652438D02*
X159738095Y-70747676D01*
X159738095Y-70747676D02*
X159785714Y-70842914D01*
X159785714Y-70842914D02*
X159833333Y-71033390D01*
X159833333Y-71033390D02*
X159833333Y-71176247D01*
X159833333Y-71176247D02*
X159785714Y-71366723D01*
X159785714Y-71366723D02*
X159738095Y-71461961D01*
X159738095Y-71461961D02*
X159642857Y-71557200D01*
X159642857Y-71557200D02*
X159500000Y-71604819D01*
X159500000Y-71604819D02*
X159261905Y-71604819D01*
X160214286Y-70700057D02*
X160261905Y-70652438D01*
X160261905Y-70652438D02*
X160357143Y-70604819D01*
X160357143Y-70604819D02*
X160595238Y-70604819D01*
X160595238Y-70604819D02*
X160690476Y-70652438D01*
X160690476Y-70652438D02*
X160738095Y-70700057D01*
X160738095Y-70700057D02*
X160785714Y-70795295D01*
X160785714Y-70795295D02*
X160785714Y-70890533D01*
X160785714Y-70890533D02*
X160738095Y-71033390D01*
X160738095Y-71033390D02*
X160166667Y-71604819D01*
X160166667Y-71604819D02*
X160785714Y-71604819D01*
D10*
X168166667Y-71909800D02*
X168309524Y-71957419D01*
X168309524Y-71957419D02*
X168547619Y-71957419D01*
X168547619Y-71957419D02*
X168642857Y-71909800D01*
X168642857Y-71909800D02*
X168690476Y-71862180D01*
X168690476Y-71862180D02*
X168738095Y-71766942D01*
X168738095Y-71766942D02*
X168738095Y-71671704D01*
X168738095Y-71671704D02*
X168690476Y-71576466D01*
X168690476Y-71576466D02*
X168642857Y-71528847D01*
X168642857Y-71528847D02*
X168547619Y-71481228D01*
X168547619Y-71481228D02*
X168357143Y-71433609D01*
X168357143Y-71433609D02*
X168261905Y-71385990D01*
X168261905Y-71385990D02*
X168214286Y-71338371D01*
X168214286Y-71338371D02*
X168166667Y-71243133D01*
X168166667Y-71243133D02*
X168166667Y-71147895D01*
X168166667Y-71147895D02*
X168214286Y-71052657D01*
X168214286Y-71052657D02*
X168261905Y-71005038D01*
X168261905Y-71005038D02*
X168357143Y-70957419D01*
X168357143Y-70957419D02*
X168595238Y-70957419D01*
X168595238Y-70957419D02*
X168738095Y-71005038D01*
X169071429Y-70957419D02*
X169309524Y-71957419D01*
X169309524Y-71957419D02*
X169500000Y-71243133D01*
X169500000Y-71243133D02*
X169690476Y-71957419D01*
X169690476Y-71957419D02*
X169928572Y-70957419D01*
X170833333Y-71957419D02*
X170261905Y-71957419D01*
X170547619Y-71957419D02*
X170547619Y-70957419D01*
X170547619Y-70957419D02*
X170452381Y-71100276D01*
X170452381Y-71100276D02*
X170357143Y-71195514D01*
X170357143Y-71195514D02*
X170261905Y-71243133D01*
D11*
X162488095Y-50562319D02*
X162488095Y-51371842D01*
X162488095Y-51371842D02*
X162535714Y-51467080D01*
X162535714Y-51467080D02*
X162583333Y-51514700D01*
X162583333Y-51514700D02*
X162678571Y-51562319D01*
X162678571Y-51562319D02*
X162869047Y-51562319D01*
X162869047Y-51562319D02*
X162964285Y-51514700D01*
X162964285Y-51514700D02*
X163011904Y-51467080D01*
X163011904Y-51467080D02*
X163059523Y-51371842D01*
X163059523Y-51371842D02*
X163059523Y-50562319D01*
X164059523Y-51562319D02*
X163488095Y-51562319D01*
X163773809Y-51562319D02*
X163773809Y-50562319D01*
X163773809Y-50562319D02*
X163678571Y-50705176D01*
X163678571Y-50705176D02*
X163583333Y-50800414D01*
X163583333Y-50800414D02*
X163488095Y-50848033D01*
X159261905Y-63604819D02*
X159261905Y-62604819D01*
X159261905Y-62604819D02*
X159500000Y-62604819D01*
X159500000Y-62604819D02*
X159642857Y-62652438D01*
X159642857Y-62652438D02*
X159738095Y-62747676D01*
X159738095Y-62747676D02*
X159785714Y-62842914D01*
X159785714Y-62842914D02*
X159833333Y-63033390D01*
X159833333Y-63033390D02*
X159833333Y-63176247D01*
X159833333Y-63176247D02*
X159785714Y-63366723D01*
X159785714Y-63366723D02*
X159738095Y-63461961D01*
X159738095Y-63461961D02*
X159642857Y-63557200D01*
X159642857Y-63557200D02*
X159500000Y-63604819D01*
X159500000Y-63604819D02*
X159261905Y-63604819D01*
X160785714Y-63604819D02*
X160214286Y-63604819D01*
X160500000Y-63604819D02*
X160500000Y-62604819D01*
X160500000Y-62604819D02*
X160404762Y-62747676D01*
X160404762Y-62747676D02*
X160309524Y-62842914D01*
X160309524Y-62842914D02*
X160214286Y-62890533D01*
%TO.C,SW16*%
D10*
X165000000Y-62000000D02*
X173000000Y-62000000D01*
X173000000Y-68000000D01*
X165000000Y-68000000D01*
X165000000Y-62000000D01*
D12*
%TO.C,D2*%
X157990000Y-72150000D02*
X157990000Y-73850000D01*
X157990000Y-72150000D02*
X161250000Y-72150000D01*
X157990000Y-73850000D02*
X161250000Y-73850000D01*
%TO.C,SW1*%
D10*
X165000000Y-70000000D02*
X173000000Y-70000000D01*
X173000000Y-76000000D01*
X165000000Y-76000000D01*
X165000000Y-70000000D01*
D12*
%TO.C,U1*%
X160640000Y-52802500D02*
X160640000Y-52567500D01*
X160640000Y-57547500D02*
X160640000Y-57072500D01*
X161115000Y-52327500D02*
X160940000Y-52327500D01*
X161115000Y-57547500D02*
X160640000Y-57547500D01*
X165385000Y-52327500D02*
X165860000Y-52327500D01*
X165385000Y-57547500D02*
X165860000Y-57547500D01*
X165860000Y-52327500D02*
X165860000Y-52802500D01*
X165860000Y-57547500D02*
X165860000Y-57072500D01*
X160640000Y-52327500D02*
X160400000Y-51997500D01*
X160880000Y-51997500D01*
X160640000Y-52327500D01*
G36*
X160640000Y-52327500D02*
G01*
X160400000Y-51997500D01*
X160880000Y-51997500D01*
X160640000Y-52327500D01*
G37*
%TO.C,D1*%
X157990000Y-64150000D02*
X157990000Y-65850000D01*
X157990000Y-64150000D02*
X161250000Y-64150000D01*
X157990000Y-65850000D02*
X161250000Y-65850000D01*
%TD*%
M02*
